<svg width="48" height="48" viewBox="0 0 48 48" fill="none" xmlns="http://www.w3.org/2000/svg">
<rect x="0.5" y="0.5" width="47" height="47" rx="7.5" fill="#1A1919"/>
<path fill-rule="evenodd" clip-rule="evenodd" d="M24.3015 22.1597C23.5156 19.267 20.9235 17.1428 17.8458 17.1428C14.1441 17.1428 11.1429 20.2123 11.1429 23.9995C11.1429 27.7871 14.1441 30.8571 17.8458 30.8571C20.9235 30.8571 23.5156 28.7329 24.3015 25.8392H30.4081V28.7685H36.8572V22.1597H24.3015ZM17.8458 27.3447C16.0396 27.3447 14.5755 25.8463 14.5755 23.9995C14.5755 22.1526 16.0396 20.6547 17.8458 20.6547C19.65 20.6547 21.1141 22.1526 21.1141 23.9995C21.1141 25.8463 19.65 27.3447 17.8458 27.3447Z" fill="white"/>
<rect x="0.5" y="0.5" width="47" height="47" rx="7.5" stroke="#E6E6ED"/>
</svg>
