<svg width="48" height="48" viewBox="0 0 48 48" fill="none" xmlns="http://www.w3.org/2000/svg">
<rect x="0.5" y="0.5" width="47" height="47" rx="7.5" fill="white"/>
<path d="M32.1948 13.7036C30.7586 12.2797 29.7319 11.3346 28.6203 10.7467C25.7298 9.21775 22.2701 9.21775 19.3796 10.7467C18.0617 11.4437 16.8632 12.6428 14.96 14.5467L14.5467 14.96C12.6428 16.8632 11.4437 18.0617 10.7467 19.3796C9.21775 22.2701 9.21775 25.7298 10.7467 28.6203C11.4437 29.9382 12.6428 31.1368 14.5467 33.0399L14.96 33.4532C16.8631 35.3571 18.0617 36.5562 19.3796 37.2533C22.2701 38.7822 25.7298 38.7822 28.6203 37.2533C29.9382 36.5562 31.1368 35.3572 33.0399 33.4533L33.4532 33.0399C35.3571 31.1368 36.5562 29.9382 37.2533 28.6203C38.7822 25.7298 38.7822 22.2701 37.2533 19.3796C36.6725 18.2817 35.7434 17.2666 34.3486 15.8579L32.2458 17.9606C33.6297 19.3622 34.2533 20.0642 34.6262 20.7692C35.6953 22.7904 35.6953 25.2096 34.6262 27.2307C34.1662 28.1005 33.3246 28.9655 31.1451 31.1451C28.9655 33.3246 28.1005 34.1662 27.2307 34.6262C25.2096 35.6953 22.7904 35.6953 20.7692 34.6262C19.8995 34.1662 19.0345 33.3246 16.8549 31.1451C14.6753 28.9655 13.8338 28.1005 13.3737 27.2307C12.3047 25.2096 12.3047 22.7904 13.3738 20.7692C13.8338 19.8995 14.6753 19.0345 16.8549 16.8549C19.0345 14.6753 19.8995 13.8338 20.7692 13.3738C22.7904 12.3047 25.2096 12.3047 27.2307 13.3738C27.9446 13.7513 28.6552 14.3859 30.0921 15.8063L32.1948 13.7036Z" fill="#48A9E2"/>
<path d="M27.9348 17.9633C27.4993 17.5425 27.0955 17.174 26.7144 16.8773C26.0137 16.3317 25.2329 15.9 24.2643 15.8414C24.088 15.8307 23.9112 15.8307 23.7349 15.8414C22.7663 15.9 21.9855 16.3317 21.2848 16.8773C20.6295 17.3876 19.9071 18.11 19.0717 18.9455L18.9454 19.0718C18.1099 19.9072 17.3874 20.6296 16.8772 21.2849C16.3316 21.9856 15.8998 22.7664 15.8412 23.735C15.8306 23.9113 15.8306 24.0881 15.8413 24.2644C15.8998 25.2331 16.3316 26.0138 16.8772 26.7145C17.3874 27.3698 18.1099 28.0922 18.9453 28.9276L19.0717 29.0539C19.9071 29.8894 20.6295 30.6119 21.2848 31.1221C21.9855 31.6677 22.7663 32.0995 23.7349 32.1581C23.9112 32.1687 24.088 32.1687 24.2643 32.1581C25.2329 32.0995 26.0137 31.6677 26.7144 31.1221C27.3697 30.6119 28.0921 29.8894 28.9274 29.054L29.0538 28.9276C29.8893 28.0922 30.6118 27.3698 31.122 26.7145C31.6676 26.0138 32.0993 25.2331 32.1579 24.2644C32.1686 24.0881 32.1686 23.9113 32.1579 23.735C32.0993 22.7664 31.6676 21.9856 31.122 21.2849C30.8375 20.9196 30.4871 20.5333 30.0878 20.1183L27.9859 22.2203C28.3181 22.5664 28.5758 22.8524 28.777 23.1107C29.1375 23.5737 29.1836 23.7862 29.1914 23.9145C29.1948 23.9713 29.1948 24.0282 29.1914 24.0849C29.1836 24.2132 29.1375 24.4257 28.777 24.8887C28.394 25.3806 27.8059 25.9725 26.8892 26.8893C25.9724 27.806 25.3805 28.3941 24.8886 28.7771C24.4256 29.1376 24.2131 29.1838 24.0848 29.1915C24.0281 29.1949 23.9711 29.1949 23.9144 29.1915C23.7861 29.1838 23.5736 29.1376 23.1106 28.7771C22.6187 28.3941 22.0268 27.806 21.11 26.8893C20.1933 25.9725 19.6052 25.3806 19.2222 24.8887C18.8617 24.4257 18.8156 24.2132 18.8078 24.0849C18.8044 24.0282 18.8044 23.9713 18.8078 23.9145C18.8156 23.7862 18.8617 23.5737 19.2222 23.1107C19.6052 22.6188 20.1933 22.0269 21.11 21.1102C22.0268 20.1934 22.6187 19.6053 23.1106 19.2223C23.5736 18.8618 23.7861 18.8157 23.9144 18.8079C23.9711 18.8045 24.0281 18.8045 24.0848 18.8079C24.2131 18.8157 24.4256 18.8618 24.8886 19.2223C25.1602 19.4338 25.4624 19.7079 25.8329 20.0652L27.9348 17.9633Z" fill="#3D444E"/>
<rect x="0.5" y="0.5" width="47" height="47" rx="7.5" stroke="#E6E6ED"/>
</svg>
