<svg width="48" height="48" viewBox="0 0 48 48" fill="none" xmlns="http://www.w3.org/2000/svg">
<rect x="0.5" y="0.5" width="47" height="47" rx="7.5" fill="#1946AE"/>
<path fill-rule="evenodd" clip-rule="evenodd" d="M15.3273 24C15.3273 19.2102 19.2102 15.3272 24 15.3272C28.7898 15.3272 32.6727 19.2102 32.6727 24C32.6727 28.7898 28.7898 32.6727 24 32.6727C19.2102 32.6727 15.3273 28.7898 15.3273 24ZM24 16.9636C20.1139 16.9636 16.9636 20.1139 16.9636 24C16.9636 27.8861 20.1139 31.0363 24 31.0363C27.0891 31.0363 29.7132 29.0458 30.6596 26.2774C29.8439 28.3913 27.7925 29.8909 25.3909 29.8909C23.3573 29.8909 21.5749 28.8156 20.581 27.2027C20.3588 26.6561 20.2364 26.0582 20.2364 25.4318C20.2364 22.8335 22.3427 20.7272 24.9409 20.7272C25.7792 20.7272 26.5663 20.9465 27.248 21.3308C26.2233 20.6891 25.0118 20.3182 23.7136 20.3182C22.657 20.3182 21.6578 20.5639 20.77 21.0014C21.7915 19.549 23.4804 18.6 25.3909 18.6C28.4701 18.6 30.9734 21.0651 31.0352 24.1295C31.036 24.0864 31.0364 24.0432 31.0364 24C31.0364 20.1139 27.8861 16.9636 24 16.9636Z" fill="white"/>
<path fill-rule="evenodd" clip-rule="evenodd" d="M9.6 24C9.6 16.0471 16.0471 9.59998 24 9.59998C31.9529 9.59998 38.4 16.0471 38.4 24C38.4 31.9529 31.9529 38.4 24 38.4C16.0471 38.4 9.6 31.9529 9.6 24ZM24 12.3818C17.5835 12.3818 12.3818 17.5834 12.3818 24C12.3818 30.4165 17.5835 35.6182 24 35.6182C30.4165 35.6182 35.6182 30.4165 35.6182 24C35.6182 17.5834 30.4165 12.3818 24 12.3818Z" fill="white"/>
<rect x="0.5" y="0.5" width="47" height="47" rx="7.5" stroke="#E6E6ED"/>
</svg>
