<svg width="48" height="48" viewBox="0 0 48 48" fill="none" xmlns="http://www.w3.org/2000/svg">
<g clip-path="url(#clip0_4367_79086)">
<rect width="48" height="48" rx="8" fill="#EDEEF0"/>
<path fill-rule="evenodd" clip-rule="evenodd" d="M0 48.0001V34.3557L9.91033 25.0129L24.2223 32.9836L38.9305 11.3175L48 17.2212V48.0001H0Z" fill="#F05924"/>
<path fill-rule="evenodd" clip-rule="evenodd" d="M0 34.353L9.91029 25.0128L24.2222 32.9835L38.9305 11.3174L48 17.2039V0H0V34.353Z" fill="#F79B20"/>
<path fill-rule="evenodd" clip-rule="evenodd" d="M0 36.6317V32.3894L5.45511 27.2314C5.17687 26.6075 5.0222 25.9163 5.0222 25.189C5.0222 22.4164 7.26982 20.1688 10.0424 20.1688C12.815 20.1688 15.0626 22.4164 15.0626 25.189C15.0626 25.5061 15.0332 25.8164 14.9769 26.1173L20.9206 29.5006C21.8137 28.6826 23.0037 28.1835 24.3103 28.1835C24.7806 28.1835 25.2359 28.2481 25.6676 28.3691L34.9652 14.3525C34.304 13.5023 33.9103 12.4338 33.9103 11.2734C33.9103 8.50079 36.1579 6.25317 38.9305 6.25317C41.703 6.25317 43.9506 8.50079 43.9506 11.2734C43.9506 11.6864 43.9008 12.0878 43.8067 12.4718L48 15.0772V18.7064L42.1867 15.0944C41.3101 15.8421 40.173 16.2935 38.9305 16.2935C38.4377 16.2935 37.9615 16.2225 37.5116 16.0902L28.2358 30.074C28.9209 30.9322 29.3305 32.0201 29.3305 33.2036C29.3305 35.9762 27.0828 38.2238 24.3103 38.2238C21.5377 38.2238 19.2901 35.9762 19.2901 33.2036C19.2901 32.8525 19.3261 32.5098 19.3947 32.179L13.5033 28.8255C12.6027 29.6829 11.384 30.2091 10.0424 30.2091C9.12047 30.2091 8.25659 29.9606 7.51408 29.5269L0 36.6317Z" fill="white"/>
</g>
<rect x="0.5" y="0.5" width="47" height="47" rx="7.5" stroke="#E6E6ED"/>
<defs>
<clipPath id="clip0_4367_79086">
<rect width="48" height="48" rx="8" fill="white"/>
</clipPath>
</defs>
</svg>
