<svg width="70" height="25" viewBox="0 0 70 25" fill="none" xmlns="http://www.w3.org/2000/svg">
<path d="M2.54393 19.0481C3.1626 19.0481 3.64793 19.2481 3.99993 19.6481C4.35193 20.0428 4.52793 20.5521 4.52793 21.1761C4.52793 21.7948 4.34926 22.3041 3.99193 22.7041C3.63993 23.1041 3.15726 23.3041 2.54393 23.3041C2.2506 23.3041 1.9706 23.2321 1.70393 23.0881C1.4426 22.9441 1.23993 22.7468 1.09593 22.4961V25.0001H0.12793V19.1441H1.09593V19.8561C1.23993 19.6054 1.4426 19.4081 1.70393 19.2641C1.9706 19.1201 2.2506 19.0481 2.54393 19.0481ZM2.35193 22.5121C2.7306 22.5121 3.02393 22.3868 3.23193 22.1361C3.44526 21.8801 3.55193 21.5601 3.55193 21.1761C3.55193 20.7921 3.44526 20.4748 3.23193 20.2241C3.02393 19.9681 2.7306 19.8401 2.35193 19.8401C1.96793 19.8401 1.66126 19.9654 1.43193 20.2161C1.2026 20.4668 1.08793 20.7868 1.08793 21.1761C1.08793 21.5654 1.2026 21.8854 1.43193 22.1361C1.66126 22.3868 1.96793 22.5121 2.35193 22.5121Z" fill="#8E93A8"/>
<path d="M7.51374 19.0481C7.56708 19.0481 7.66574 19.0561 7.80974 19.0721V20.0881C7.69241 20.0454 7.55108 20.0241 7.38574 20.0241C7.19908 20.0241 7.03374 20.0774 6.88974 20.1841C6.75108 20.2854 6.64441 20.4214 6.56974 20.5921C6.49508 20.7574 6.43908 20.9281 6.40174 21.1041C6.36974 21.2748 6.35374 21.4454 6.35374 21.6161V23.2081H5.38574V19.1441H6.32974V20.2561C6.38308 19.9201 6.51374 19.6348 6.72174 19.4001C6.92974 19.1654 7.19374 19.0481 7.51374 19.0481Z" fill="#8E93A8"/>
<path d="M12.2336 21.0001C12.2336 21.1601 12.2256 21.2774 12.2096 21.3521H9.08156C9.12422 21.7308 9.26289 22.0214 9.49755 22.2241C9.73222 22.4214 10.0416 22.5201 10.4256 22.5201C10.8736 22.5201 11.2309 22.4321 11.4976 22.2561L11.8736 22.8721C11.4416 23.1601 10.9322 23.3041 10.3456 23.3041C9.69489 23.3041 9.16156 23.1121 8.74555 22.7281C8.33489 22.3441 8.12955 21.8294 8.12955 21.1841C8.12955 20.5494 8.32422 20.0348 8.71356 19.6401C9.10822 19.2454 9.62022 19.0481 10.2496 19.0481C10.8469 19.0481 11.3269 19.2268 11.6896 19.5841C12.0522 19.9361 12.2336 20.4081 12.2336 21.0001ZM10.2256 19.8001C9.92689 19.8001 9.67889 19.8881 9.48155 20.0641C9.28956 20.2348 9.16689 20.4694 9.11355 20.7681H11.2736C11.2522 20.4641 11.1482 20.2268 10.9616 20.0561C10.7749 19.8854 10.5296 19.8001 10.2256 19.8001Z" fill="#8E93A8"/>
<path d="M16.2267 19.7281L14.0267 22.4481H16.3067V23.2081H12.6987V22.6321L14.8907 19.9041H12.8187V19.1441H16.2267V19.7281Z" fill="#8E93A8"/>
<path d="M19.4085 19.0481C19.8992 19.0481 20.2752 19.2268 20.5365 19.5841C20.8032 19.9361 20.9365 20.3654 20.9365 20.8721V23.2081H19.9605V20.9121C19.9605 20.6134 19.8885 20.3628 19.7445 20.1601C19.6005 19.9521 19.3845 19.8481 19.0965 19.8481C18.7658 19.8481 18.5125 19.9761 18.3365 20.2321C18.1605 20.4828 18.0725 20.7814 18.0725 21.1281V23.2081H17.1045V19.1441H18.0725V19.8641C18.1792 19.6081 18.3552 19.4081 18.6005 19.2641C18.8512 19.1201 19.1205 19.0481 19.4085 19.0481Z" fill="#8E93A8"/>
<path d="M23.6591 19.0481C24.2351 19.0481 24.6991 19.2134 25.0511 19.5441C25.4085 19.8748 25.5871 20.3254 25.5871 20.8961V23.2081H24.6111V22.6321C24.4618 22.8508 24.2565 23.0188 23.9951 23.1361C23.7391 23.2481 23.4698 23.3041 23.1871 23.3041C22.7765 23.3041 22.4218 23.1921 22.1231 22.9681C21.8245 22.7441 21.6751 22.4321 21.6751 22.0321C21.6751 21.6161 21.8378 21.2988 22.1631 21.0801C22.4938 20.8614 22.8778 20.7521 23.3151 20.7521C23.8271 20.7521 24.2618 20.8908 24.6191 21.1681V20.8481C24.6191 20.5281 24.5178 20.2774 24.3151 20.0961C24.1125 19.9094 23.8511 19.8161 23.5311 19.8161C23.0405 19.8161 22.6271 19.9494 22.2911 20.2161L21.9631 19.5761C22.1765 19.4054 22.4378 19.2748 22.7471 19.1841C23.0618 19.0934 23.3658 19.0481 23.6591 19.0481ZM23.4751 22.6001C23.9498 22.6001 24.3284 22.4188 24.6111 22.0561L24.6191 21.6401C24.3044 21.4374 23.9551 21.3361 23.5711 21.3361C23.3365 21.3361 23.1258 21.3894 22.9391 21.4961C22.7524 21.6028 22.6591 21.7628 22.6591 21.9761C22.6591 22.1788 22.7418 22.3334 22.9071 22.4401C23.0725 22.5468 23.2618 22.6001 23.4751 22.6001Z" fill="#8E93A8"/>
<path d="M4.64 2.16819C4.16 2.16819 3.78667 2.32819 3.52 2.64819C3.264 2.95753 3.136 3.36286 3.136 3.86419V4.28019H5.312V5.67219H3.136V12.4082H1.216V5.67219H0V4.28019H1.216V3.72019C1.216 2.78153 1.49867 2.03486 2.064 1.48019C2.64 0.925527 3.39733 0.648193 4.336 0.648193C5.296 0.648193 6.08533 0.88286 6.704 1.35219L6.048 2.60019C5.64267 2.31219 5.17333 2.16819 4.64 2.16819Z" fill="white"/>
<path d="M9.766 4.08819C10.918 4.08819 11.846 4.41886 12.55 5.08019C13.2647 5.74153 13.622 6.64286 13.622 7.78419V12.4082H11.67V11.2562C11.3713 11.6935 10.9607 12.0295 10.438 12.2642C9.926 12.4882 9.38733 12.6002 8.822 12.6002C8.00067 12.6002 7.29133 12.3762 6.694 11.9282C6.09667 11.4802 5.798 10.8562 5.798 10.0562C5.798 9.22419 6.12333 8.58953 6.774 8.15219C7.43533 7.71486 8.20333 7.49619 9.078 7.49619C10.102 7.49619 10.9713 7.77353 11.686 8.32819V7.68819C11.686 7.04819 11.4833 6.54686 11.078 6.18419C10.6727 5.81086 10.15 5.62419 9.51 5.62419C8.52867 5.62419 7.702 5.89086 7.03 6.42419L6.374 5.14419C6.80067 4.80286 7.32333 4.54153 7.942 4.36019C8.57133 4.17886 9.17933 4.08819 9.766 4.08819ZM9.398 11.1922C10.3473 11.1922 11.1047 10.8295 11.67 10.1042L11.686 9.27219C11.0567 8.86686 10.358 8.66419 9.59 8.66419C9.12067 8.66419 8.69933 8.77086 8.326 8.98419C7.95267 9.19753 7.766 9.51753 7.766 9.94419C7.766 10.3495 7.93133 10.6589 8.262 10.8722C8.59267 11.0855 8.97133 11.1922 9.398 11.1922Z" fill="white"/>
<path d="M18.5509 4.08819C19.6175 4.08819 20.6095 4.32286 21.5269 4.79219L20.9669 6.10419C20.1349 5.73086 19.3669 5.54419 18.6629 5.54419C18.3002 5.54419 17.9802 5.61886 17.7029 5.76819C17.4255 5.90686 17.2869 6.14153 17.2869 6.47219C17.2869 6.87753 17.6229 7.17619 18.2949 7.36819L19.4629 7.73619C20.9242 8.20553 21.6549 9.01086 21.6549 10.1522C21.6549 10.9629 21.3295 11.5762 20.6789 11.9922C20.0389 12.3975 19.2869 12.6002 18.4229 12.6002C17.0575 12.6002 15.9055 12.3122 14.9669 11.7362L15.6229 10.3922C16.4655 10.8722 17.3669 11.1122 18.3269 11.1122C18.6789 11.1122 19.0095 11.0375 19.3189 10.8882C19.6389 10.7389 19.7989 10.5095 19.7989 10.2002C19.7989 9.75219 19.4255 9.42686 18.6789 9.22419L17.5109 8.85619C16.1242 8.39753 15.4309 7.61353 15.4309 6.50419C15.4309 5.70419 15.7402 5.10153 16.3589 4.69619C16.9775 4.29086 17.7082 4.08819 18.5509 4.08819Z" fill="white"/>
<path d="M28.0966 10.7122L28.5606 12.0242C28.006 12.4082 27.3073 12.6002 26.4646 12.6002C25.6966 12.6002 25.0566 12.3709 24.5446 11.9122C24.0326 11.4535 23.7766 10.8455 23.7766 10.0882V5.75219H22.5126V4.28019H23.8886L24.2726 1.99219H25.6966V4.28019H28.1446V5.75219H25.6966V9.65619C25.6966 10.0615 25.798 10.3869 26.0006 10.6322C26.2033 10.8775 26.5073 11.0002 26.9126 11.0002C27.3393 11.0002 27.734 10.9042 28.0966 10.7122Z" fill="white"/>
<path d="M34.5981 4.08819C35.8355 4.08819 36.8061 4.48819 37.5101 5.28819C38.2141 6.07753 38.5661 7.09619 38.5661 8.34419C38.5661 9.58153 38.2088 10.6002 37.4941 11.4002C36.7901 12.2002 35.8248 12.6002 34.5981 12.6002C34.0115 12.6002 33.4515 12.4562 32.9181 12.1682C32.3955 11.8802 31.9901 11.4855 31.7021 10.9842V15.9922H29.7661V4.28019H31.7021V5.70419C31.9901 5.20286 32.3955 4.80819 32.9181 4.52019C33.4515 4.23219 34.0115 4.08819 34.5981 4.08819ZM34.2141 11.0162C34.9715 11.0162 35.5581 10.7655 35.9741 10.2642C36.4008 9.75219 36.6141 9.11219 36.6141 8.34419C36.6141 7.57619 36.4008 6.94153 35.9741 6.44019C35.5581 5.92819 34.9715 5.67219 34.2141 5.67219C33.4461 5.67219 32.8328 5.92286 32.3741 6.42419C31.9155 6.92553 31.6861 7.56553 31.6861 8.34419C31.6861 9.12286 31.9155 9.76286 32.3741 10.2642C32.8328 10.7655 33.4461 11.0162 34.2141 11.0162Z" fill="white"/>
<path d="M44.5378 4.08819C44.6444 4.08819 44.8417 4.10419 45.1297 4.13619V6.16819C44.8951 6.08286 44.6124 6.04019 44.2817 6.04019C43.9084 6.04019 43.5778 6.14686 43.2897 6.36019C43.0124 6.56286 42.7991 6.83486 42.6497 7.17619C42.5004 7.50686 42.3884 7.84819 42.3137 8.20019C42.2497 8.54153 42.2178 8.88286 42.2178 9.22419V12.4082H40.2817V4.28019H42.1698V6.50419C42.2764 5.83219 42.5378 5.26153 42.9538 4.79219C43.3698 4.32286 43.8978 4.08819 44.5378 4.08819Z" fill="white"/>
<path d="M53.9774 7.99219C53.9774 8.31219 53.9614 8.54686 53.9294 8.69619H47.6734C47.7587 9.45353 48.036 10.0349 48.5054 10.4402C48.9747 10.8349 49.5934 11.0322 50.3614 11.0322C51.2574 11.0322 51.972 10.8562 52.5054 10.5042L53.2574 11.7362C52.3934 12.3122 51.3747 12.6002 50.2014 12.6002C48.9 12.6002 47.8334 12.2162 47.0014 11.4482C46.18 10.6802 45.7694 9.65086 45.7694 8.36019C45.7694 7.09086 46.1587 6.06153 46.9374 5.27219C47.7267 4.48286 48.7507 4.08819 50.0094 4.08819C51.204 4.08819 52.164 4.44553 52.8894 5.16019C53.6147 5.86419 53.9774 6.80819 53.9774 7.99219ZM49.9614 5.59219C49.364 5.59219 48.868 5.76819 48.4734 6.12019C48.0894 6.46153 47.844 6.93086 47.7374 7.52819H52.0574C52.0147 6.92019 51.8067 6.44553 51.4334 6.10419C51.06 5.76286 50.5694 5.59219 49.9614 5.59219Z" fill="white"/>
<path d="M58.4259 4.08819C59.4925 4.08819 60.4845 4.32286 61.4019 4.79219L60.8419 6.10419C60.0099 5.73086 59.2419 5.54419 58.5379 5.54419C58.1752 5.54419 57.8552 5.61886 57.5779 5.76819C57.3005 5.90686 57.1619 6.14153 57.1619 6.47219C57.1619 6.87753 57.4979 7.17619 58.1699 7.36819L59.3379 7.73619C60.7992 8.20553 61.5299 9.01086 61.5299 10.1522C61.5299 10.9629 61.2045 11.5762 60.5539 11.9922C59.9139 12.3975 59.1619 12.6002 58.2979 12.6002C56.9325 12.6002 55.7805 12.3122 54.8419 11.7362L55.4979 10.3922C56.3405 10.8722 57.2419 11.1122 58.2019 11.1122C58.5539 11.1122 58.8845 11.0375 59.1939 10.8882C59.5139 10.7389 59.6739 10.5095 59.6739 10.2002C59.6739 9.75219 59.3005 9.42686 58.5539 9.22419L57.3859 8.85619C55.9992 8.39753 55.3059 7.61353 55.3059 6.50419C55.3059 5.70419 55.6152 5.10153 56.2339 4.69619C56.8525 4.29086 57.5832 4.08819 58.4259 4.08819Z" fill="white"/>
<path d="M66.0196 4.08819C67.0863 4.08819 68.0783 4.32286 68.9956 4.79219L68.4356 6.10419C67.6036 5.73086 66.8356 5.54419 66.1316 5.54419C65.769 5.54419 65.449 5.61886 65.1716 5.76819C64.8943 5.90686 64.7556 6.14153 64.7556 6.47219C64.7556 6.87753 65.0916 7.17619 65.7636 7.36819L66.9316 7.73619C68.393 8.20553 69.1236 9.01086 69.1236 10.1522C69.1236 10.9629 68.7983 11.5762 68.1476 11.9922C67.5076 12.3975 66.7556 12.6002 65.8916 12.6002C64.5263 12.6002 63.3743 12.3122 62.4356 11.7362L63.0916 10.3922C63.9343 10.8722 64.8356 11.1122 65.7956 11.1122C66.1476 11.1122 66.4783 11.0375 66.7876 10.8882C67.1076 10.7389 67.2676 10.5095 67.2676 10.2002C67.2676 9.75219 66.8943 9.42686 66.1476 9.22419L64.9796 8.85619C63.593 8.39753 62.8996 7.61353 62.8996 6.50419C62.8996 5.70419 63.209 5.10153 63.8276 4.69619C64.4463 4.29086 65.177 4.08819 66.0196 4.08819Z" fill="white"/>
</svg>
