<svg width="48" height="48" viewBox="0 0 48 48" fill="none" xmlns="http://www.w3.org/2000/svg">
<rect x="0.5" y="0.5" width="47.0001" height="47" rx="7.5" fill="#F8F9FA"/>
<path d="M26.1845 14.6854C25.9792 14.3158 26.0987 13.8584 26.3413 13.5122C26.5952 13.1498 26.7442 12.7086 26.7442 12.2326C26.7442 10.9995 25.7447 10 24.5116 10C23.2786 10 22.2791 10.9995 22.2791 12.2326C22.2791 12.7086 22.428 13.1499 22.682 13.5123C22.9246 13.8586 23.0442 14.316 22.8388 14.6856C22.7231 14.894 22.5034 15.0233 22.265 15.0233H16.1395C15.523 15.0233 15.0233 15.523 15.0233 16.1395V22.2647C15.0233 22.5032 14.8939 22.723 14.6854 22.8389C14.3158 23.0442 13.8584 22.9247 13.5122 22.6821C13.1498 22.4282 12.7086 22.2792 12.2326 22.2792C10.9995 22.2792 10 23.2787 10 24.5118C10 25.7448 10.9995 26.7443 12.2326 26.7443C12.7086 26.7443 13.1499 26.5954 13.5123 26.3414C13.8586 26.0988 14.316 25.9792 14.6856 26.1846C14.894 26.3003 15.0233 26.52 15.0233 26.7584V32.8837C15.0233 33.5002 15.523 34 16.1395 34H22.265C22.5034 34 22.7231 33.8708 22.8388 33.6624C23.0442 33.2927 22.9246 32.8353 22.682 32.489C22.428 32.1267 22.2791 31.6854 22.2791 31.2093C22.2791 29.9763 23.2786 28.9767 24.5116 28.9767C25.7447 28.9767 26.7442 29.9763 26.7442 31.2093C26.7442 31.6853 26.5952 32.1266 26.3413 32.4889C26.0987 32.8352 25.9792 33.2926 26.1845 33.6622C26.3004 33.8707 26.5202 34 26.7587 34H32.8837C33.5002 34 34 33.5002 34 32.8837V26.7584C34 26.52 33.8708 26.3003 33.6624 26.1846C33.2927 25.9792 32.8353 26.0988 32.489 26.3414C32.1267 26.5954 31.6854 26.7443 31.2093 26.7443C29.9763 26.7443 28.9767 25.7448 28.9767 24.5118C28.9767 23.2787 29.9763 22.2792 31.2093 22.2792C31.6853 22.2792 32.1266 22.4282 32.4889 22.6821C32.8352 22.9247 33.2926 23.0442 33.6622 22.8389C33.8707 22.723 34 22.5032 34 22.2647V16.1395C34 15.523 33.5002 15.0233 32.8837 15.0233H26.7587C26.5202 15.0233 26.3004 14.8939 26.1845 14.6854Z" fill="#CBCEDA"/>
<rect x="0.5" y="0.5" width="47.0001" height="47" rx="7.5" stroke="#E6E6ED"/>
</svg>
