<svg width="48" height="48" viewBox="0 0 48 48" fill="none" xmlns="http://www.w3.org/2000/svg">
<rect x="0.5" y="0.5" width="47" height="47" rx="7.5" fill="#121212"/>
<path fill-rule="evenodd" clip-rule="evenodd" d="M38.4 22.396C38.4 13.8558 32.4255 7.80005 24 7.80005C15.5745 7.80005 9.60001 13.8558 9.60001 22.396C9.60001 30.9362 15.5745 37.4578 24 37.4578C25.8039 37.4578 27.4955 37.1588 29.0401 36.6051L30.7404 39.6316H37.3277L33.8169 33.6731C36.6929 30.9493 38.4 26.9611 38.4 22.396ZM30.7302 28.4518C31.5589 27.0216 32.1192 25.0668 32.1192 22.396C32.1192 14.5701 26.7064 12.8206 24 12.9242C21.2936 12.8206 15.8809 14.5701 15.8809 22.396C15.8809 31.8678 22.9277 32.3337 24 32.3337C24.3402 32.3337 25.2815 32.2868 26.4083 31.9205L24.4596 28.4518H30.7302Z" fill="#EFEFEF"/>
<rect x="0.5" y="0.5" width="47" height="47" rx="7.5" stroke="#E6E6ED"/>
</svg>
